<svg id="图层_1" data-name="图层 1" xmlns="http://www.w3.org/2000/svg" xmlns:xlink="http://www.w3.org/1999/xlink" viewBox="0 0 446.75 390.41"><defs><style>.cls-1{fill:url(#未命名的渐变);}.cls-2{fill:#56b0f7;}.cls-3{fill:#8fd8ec;}.cls-4{fill:#96b8e2;}</style><linearGradient id="未命名的渐变" x1="113.76" y1="603.04" x2="379.82" y2="869.1" gradientTransform="translate(-18.86 -529.95) scale(0.99)" gradientUnits="userSpaceOnUse"><stop offset="0" stop-color="#5ea5db"/><stop offset="1" stop-color="#7578b8"/></linearGradient></defs><path class="cls-1" d="M292.91,53.58c-77.92,3.72-146.18,38-129.72,93.2s24,113.72,29,144.36c8.23,49.2,53.4,49.2,61,12.84,16-77.32-15.33-98.56,39.66-107.12,35.95-5.6,36.51-49-7.11-44-21.2,2.48-42.65,8.36-49-15.8C228,104,302.88,77.62,358.74,94.42c45.49,13.72,87.87,78.16,35.94,180.36C344.36,373.3,245.46,444.45,114.76,336s-101.17-228,13-287.4a233.44,233.44,0,0,1,164-20.2C325.15,36.82,315.92,52.45,292.91,53.58Z" transform="translate(0 0.01)"/><path class="cls-2" d="M337.57,55.26c-2.36,8.92,52.64,33.36,57.83,13.52S340,46.38,337.57,55.26Z" transform="translate(0 0.01)"/><path class="cls-3" d="M346.59,35.7c-4.59,9.28,24,7.76,23.49-3S349.55,29.78,346.59,35.7ZM22.32,231.06c-17.5-2.4-15.62,21.44.79,15C32.46,242.3,31.94,232.38,22.32,231.06ZM379.43,324c6.71,17.28,39.18-5.84,8.34-12.44-9.94-2.2-11.94,3.24-8.34,12.44Z" transform="translate(0 0.01)"/><path class="cls-4" d="M37,266.54C48.6,250,22.36,248.74,3.46,260.45-8,267.5,10.49,304.34,37,266.54Zm90.79-218a233.84,233.84,0,0,1,156.17-22c9.3-10.56,6.31-19.28-20-23.76C186.35-10.5,47.56,23.7,65.25,96A216.28,216.28,0,0,1,127.76,48.58Z" transform="translate(0 0.01)"/><path class="cls-4" d="M101.44,148.58c60.63,55.4,83.07,111.6,90,138-5.07-31.6-12.62-87.12-28.27-139.76-10.19-34.24,12-60.36,49.08-76.2,28.72-14.4,59.91-30.68,71.7-44a233.82,233.82,0,0,0-156.19,22A216.15,216.15,0,0,0,65.21,96C69.13,111.7,80.43,129.26,101.44,148.58Z" transform="translate(0 0.01)"/><path class="cls-3" d="M414.41,155.38c8.35,30.2,5.08,70.48-20,119.4A298.83,298.83,0,0,1,374.84,308c32.71-19.68,59.47-48,68.74-82.48C453.44,189.1,439.34,168,414.41,155.38Z" transform="translate(0 0.01)"/><path class="cls-3" d="M414.41,155.38c-62.82-32-193.55-8-172.86-38.16a22.34,22.34,0,0,0-4.79,20c6.35,24,28,18.28,49,15.8,43.62-5.12,43.18,38.24,7.11,44-55,8.28-23.56,29.52-39.66,107-4.83,23.24-24.92,31.68-41,22,33.87,25,107,16,162.68-17.72a301.91,301.91,0,0,0,19.69-33.36C419.37,225.86,422.76,185.58,414.41,155.38Z" transform="translate(0 0.01)"/><path class="cls-2" d="M50.83,263.1c-19.21,20-30.59,39.72-22.08,57.44,17.29,36,68.81,49.6,128.57,45.16A294.91,294.91,0,0,1,114.76,336C85.9,312,64.89,287.38,50.83,263.1Z" transform="translate(0 0.01)"/><path class="cls-2" d="M402.76,142.78a76,76,0,0,0-40.91-47.33l-3.09-1c-55.92-16.8-130.73,9.44-122,42.68,6.35,24,28,18.28,49,15.8,43.62-5.12,43.18,38.24,7.11,44-55,8.4-23.56,29.64-39.66,107.08-7.59,36.48-52.76,36.48-61-12.72-5.11-30.76-12.5-89.2-29-144.48,4,29.84-71.66,73.84-112.36,116.32,14.06,24.28,35.07,48.88,64,72.88a295.5,295.5,0,0,0,42.54,29.84C281.85,356.45,442.05,268.9,402.76,142.78Z" transform="translate(0 0.01)"/></svg>