<svg id="图层_1" data-name="图层 1" xmlns="http://www.w3.org/2000/svg" viewBox="0 0 354.55 78.79"><defs><style>.cls-1{fill:#323333;fill-opacity:0;}.cls-2{fill:#f09523;}.cls-2,.cls-3,.cls-4,.cls-5,.cls-6,.cls-7{isolation:isolate;opacity:0.7;}.cls-3{fill:#efcf26;}.cls-4{fill:#338dcd;}.cls-5{fill:#8fc42c;}.cls-6{fill:#e73161;}.cls-7{fill:#49479b;}</style></defs><rect class="cls-1" x="275.76" width="78.79" height="78.79"/><path class="cls-2" d="M470.42,336.59H465.9a.31.31,0,0,0,0-.19l-34.33-69.07a.4.4,0,0,0-.73,0L396.19,336.4a.41.41,0,0,0,0,.19h-4.52L431,257.8ZM450.33,307l-12.07-24.27-7.1-14.31L397.5,335.59l22.2-12Zm-31.19,17.82-21.72,11.77H465L450.7,307.73Z" transform="translate(-115.87 -257.8)"/><path class="cls-3" d="M450.33,307,419.7,323.59l18.56-40.86Zm.37.73-31.56,17.09-5.35,11.77H465Z" transform="translate(-115.87 -257.8)"/><rect class="cls-1" x="201.89" width="73.87" height="78.79"/><path class="cls-4" d="M385.54,268.67c-5.82-6.16-14.75-10.87-28.45-10.87-39.6,0-39.33,39.32-39.33,39.32s0,39.33,39.33,39.33c11.82,0,20.09-3.56,25.88-8.53a31.74,31.74,0,0,0,2.51-2.41l-28.39-28.39Zm-28.32,60.95h0a39.7,39.7,0,0,1-14.92-5A29.6,29.6,0,0,1,332,314.92a32.52,32.52,0,0,1-4.67-17.65v-.14A32.4,32.4,0,0,1,332,279.62a29.48,29.48,0,0,1,10.28-9.75,39.91,39.91,0,0,1,14.92-5,.41.41,0,0,1,.43.39.42.42,0,0,1-.36.43,38.76,38.76,0,0,0-14.6,4.87,28.67,28.67,0,0,0-10,9.47,31.64,31.64,0,0,0-4.54,17.06v.14a31.7,31.7,0,0,0,4.55,17.22,28.77,28.77,0,0,0,10,9.46,39.26,39.26,0,0,0,14.58,4.87.41.41,0,0,1,0,.81Z" transform="translate(-115.87 -257.8)"/><path class="cls-5" d="M391.63,336.59l-73.87-.14V297.12h9.56v.14A32.53,32.53,0,0,0,332,314.92a29.6,29.6,0,0,0,10.28,9.73,39.7,39.7,0,0,0,14.92,5h0a.41.41,0,0,0,0-.82,38.7,38.7,0,0,1-14.58-4.86,28.68,28.68,0,0,1-10-9.46,31.61,31.61,0,0,1-4.54-17.22v-.14h24L383,327.92Z" transform="translate(-115.87 -257.8)"/><rect class="cls-1" x="123.1" width="78.79" height="78.79"/><path class="cls-6" d="M278.37,257.8a39.4,39.4,0,1,0,39.39,39.39A39.39,39.39,0,0,0,278.37,257.8Zm-1.23,74.27a33.66,33.66,0,1,1,13.41-2.8A33.68,33.68,0,0,1,277.14,332.07Z" transform="translate(-115.87 -257.8)"/><path class="cls-6" d="M305.78,282.41a32.8,32.8,0,1,0,4.19,16A32.81,32.81,0,0,0,305.78,282.41Z" transform="translate(-115.87 -257.8)"/><path class="cls-3" d="M305.78,282.41a24.62,24.62,0,1,0-4.25,38A32.76,32.76,0,0,0,305.78,282.41Z" transform="translate(-115.87 -257.8)"/><path class="cls-3" d="M308,285a33.59,33.59,0,0,1-3.74,33.4A24.62,24.62,0,0,0,308,285Z" transform="translate(-115.87 -257.8)"/><rect class="cls-1" x="59.09" width="64.01" height="78.79"/><path class="cls-7" d="M175,257.8V307s0,29.55,29.55,29.55c8.2,0,14.13-2.28,18.4-5.57,11.14-8.56,11.14-24,11.14-24V257.8ZM229.54,307a30.83,30.83,0,0,1-3.12,12.49,22.06,22.06,0,0,1-7.45,8.63,22.55,22.55,0,0,1-7.16,3.08,30.4,30.4,0,0,1-7.3.83,25.65,25.65,0,0,1-14.46-3.91,21.9,21.9,0,0,1-7.45-8.63A30.78,30.78,0,0,1,179.47,307V262.72a.42.42,0,0,1,.83,0V307a30.4,30.4,0,0,0,3,12.15,21.08,21.08,0,0,0,7.17,8.29,24.85,24.85,0,0,0,14,3.77,31.1,31.1,0,0,0,5.36-.44,22.52,22.52,0,0,0,8.63-3.33,21.08,21.08,0,0,0,7.17-8.29A30.51,30.51,0,0,0,228.72,307V262.72a.41.41,0,0,1,.41-.41.42.42,0,0,1,.41.41Z" transform="translate(-115.87 -257.8)"/><path class="cls-6" d="M239,267.65V309.5s0,17.88-16.07,21.52a27.1,27.1,0,0,1-6.09.64,28.08,28.08,0,0,1-5-.42,22.55,22.55,0,0,0,7.16-3.08,22.06,22.06,0,0,0,7.45-8.63A30.68,30.68,0,0,0,229.54,307V267.65Zm-13.3,51.54a30.6,30.6,0,0,0,3-12.15V267.65H194.66V309.5s0,17.24,15.21,21.31a22.52,22.52,0,0,0,8.63-3.33,21.08,21.08,0,0,0,7.17-8.29Z" transform="translate(-115.87 -257.8)"/><rect class="cls-1" width="59.09" height="78.79"/><path class="cls-5" d="M115.87,257.8l.27,78.79h19.43V307h19.69v-19.7H175V257.8ZM170,263.13H121.21V292h2.05l24.62-.11h2.46a.41.41,0,1,1,0,.82h-2.47l-24.61.12h-2.05v38.84a.42.42,0,0,1-.83,0V262.72a.42.42,0,0,1,.42-.41H170a.42.42,0,0,1,.41.41A.41.41,0,0,1,170,263.13Z" transform="translate(-115.87 -257.8)"/><path class="cls-3" d="M123.26,299.66h24.62v-7l-24.62.12Zm0-34.47V292l24.62-.11V280h19.7V265.19Z" transform="translate(-115.87 -257.8)"/></svg>