<svg id="图层_1" data-name="图层 1" xmlns="http://www.w3.org/2000/svg" viewBox="0 0 356.07 356.07"><defs><style>.cls-1{fill:#e33462;}</style></defs><path class="cls-1" d="M283.26,224.93a178,178,0,1,0,178,178C461.34,304.65,381.63,224.93,283.26,224.93Zm-106.72,281a149.79,149.79,0,0,1-18.46-23.5,147.46,147.46,0,0,1,95.46-34.94H312.9a176.84,176.84,0,0,0,118.63-45.65c0,.37,0,.74,0,1.11a148.66,148.66,0,0,1-5.72,40.48,206,206,0,0,1-113,33.7H253.58A118.16,118.16,0,0,0,176.54,505.9Zm-32-50.59a143.91,143.91,0,0,1-7.94-30.93,206.25,206.25,0,0,1,117-36.28h59.36a118.62,118.62,0,0,0,100.68-56,146,146,0,0,1,12.83,32.69,147.68,147.68,0,0,1-113.51,53H253.58A176.86,176.86,0,0,0,144.56,455.31ZM394.41,304.88A89,89,0,0,1,313,358.42H253.58a236,236,0,0,0-118,31.57,149.63,149.63,0,0,1,8.36-37.52,265.17,265.17,0,0,1,109.72-23.73H313a59.32,59.32,0,0,0,57.56-45.6A150,150,0,0,1,394.41,304.88ZM283.26,254.56A148,148,0,0,1,342.62,267v2.35a29.73,29.73,0,0,1-29.68,29.73H253.58a294,294,0,0,0-87.84,13.57A148,148,0,0,1,283.26,254.56Zm0,296.76a147.57,147.57,0,0,1-83.73-25.94,88.11,88.11,0,0,1,54.05-18.6h59.36a234.92,234.92,0,0,0,91.63-18.61A147.91,147.91,0,0,1,283.26,551.32Z" transform="translate(-105.23 -224.93)"/></svg>