<svg id="图层_1" data-name="图层 1" xmlns="http://www.w3.org/2000/svg" xmlns:xlink="http://www.w3.org/1999/xlink" viewBox="0 0 760.02 760.02"><defs><style>.cls-1{fill:#040000;}.cls-2{fill:#fff;}.cls-3{mask:url(#mask);}.cls-4{mask:url(#mask-2);}</style><mask id="mask" x="0" y="0" width="760.02" height="760.02" maskUnits="userSpaceOnUse"><g transform="translate(82.37 -40.94)"><g id="mask-0f062e45-e322-49fb-8010-2c4beb24e709"><rect class="cls-1" x="-82.37" y="40.94" width="760.02" height="760.02"/><g id="def-707c6499-10b8-4d85-86e9-b48a37042732"><path id="def-cfcc298d-bc27-4c9f-a347-922fbc4db44f" class="cls-2" d="M280.5,114.17a34.25,34.25,0,0,1,34.28,0l240,138.54a34.3,34.3,0,0,1,17.14,29.69V559.49a34.3,34.3,0,0,1-17.14,29.69l-240,138.54a34.25,34.25,0,0,1-34.28,0l-240-138.54a34.28,34.28,0,0,1-17.14-29.69V282.4a34.28,34.28,0,0,1,17.14-29.69Z"/></g></g></g></mask><mask id="mask-2" x="198.87" y="329.23" width="362.28" height="94.95" maskUnits="userSpaceOnUse"><g transform="translate(82.37 -40.94)"><g id="mask-2644b8ed-481b-43dc-9768-d72d9ee8cbdd"><rect class="cls-1" x="116.5" y="370.17" width="362.28" height="94.95"/><path id="def-1dce69f1-f1f8-4422-a883-a901a59f68e9" class="cls-2" d="M123.08,461.51H472.19v3.61H123.08Z"/><path id="def-5ee31ae5-3635-4f19-97c0-b6d22499316a" class="cls-2" d="M123.16,378.1v63.14H146.6v-18h18.94v-18H146.6V398h23.45V378.1ZM212.44,420c-4.05,0-7.21-3.15-7.21-8.11V378.1H181.78v33.83c0,18,12.63,30.66,30.66,30.66s30.67-12.63,30.67-30.66V378.1H219.66v33.83C219.66,416.89,216.5,420,212.44,420Zm89.29-10.37c0,6.32-4.51,10.82-9.92,10.82s-9.92-4.5-9.92-10.82,4.51-10.82,9.92-10.82S301.73,403.36,301.73,409.67Zm25.26,0c0-18.49-14.43-32.92-35.18-32.92s-35.17,14.43-35.17,32.92,14.43,32.92,35.17,32.92S327,428.16,327,409.67Zm11.72,0c0,18.49,14.43,32.92,33.37,32.92,17.14,0,25.25-9.92,25.25-9.92l-10.82-17.14s-5.41,5-11.72,5a10.82,10.82,0,1,1,0-21.64c6.31,0,11.72,5,11.72,5l10.82-17.14s-8.11-9.92-25.25-9.92C353.14,376.75,338.71,391.18,338.71,409.67Zm115-31.57H423l-18.49,63.14h26.16l1.8-9h11.72l1.81,9h26.15S453.79,378.47,453.7,378.1Zm-18.48,39.69,3.15-16.24,3.16,16.24Z"/></g></g></mask></defs><g class="cls-3"><rect class="cls-2" width="760.02" height="760.02"/></g><g class="cls-4"><rect class="cls-1" x="198.87" y="329.23" width="362.28" height="94.95"/></g></svg>